<svg xmlns="http://www.w3.org/2000/svg" width="0" height="0" style="position:absolute"><symbol id="icon-facebook" viewBox="0 0 512 512"><path fill-rule="evenodd" clip-rule="evenodd" d="M314.7 85.3h67.4V0l-70.3.2c-93.5 0-115.1 60.4-115.1 102.2v85.3h-67.4V273h67.4c0 115.9-.9 238.9-.9 238.9h102V273h67.4l16.8-85.3h-84.2v-68.3c0-19.9 6.9-34.1 16.9-34.1z"/></symbol><symbol id="icon-google-plus" viewBox="0 0 512 512"><path fill-rule="evenodd" clip-rule="evenodd" d="M320.2 22.3H188.5c-17.5 0-36.2 2-56.2 5.8C112.2 32.6 92.8 42.3 74 57c-27.3 25.2-40.9 53.2-40.9 84.1 0 25.6 9.6 48 28.8 67.3C80.3 229.1 107 239.6 142 240c6.6 0 13.7-.4 21.2-1.2-1.2 3.3-2.6 6.9-4 10.8-1.6 3.7-2.5 8.3-2.5 13.9 0 9.3 2.2 17.2 6.5 23.8 3.7 6.8 7.9 13.2 12.7 19.1-15.4.4-34.7 2.2-57.9 5.5-23.5 3.9-45.9 11.6-67.2 23.3-19 10.8-32.1 23.4-39.3 37.7C4 387.2.3 400.2.3 411.8c0 23.9 11.5 44.5 34.4 61.6 22.7 18.4 57.2 27.8 103.3 28.2 55.1-.8 97.2-13.4 126.5-37.8 28.2-23.5 42.3-50.6 42.3-81.1-.4-21.5-5.5-38.9-15.4-52.2-10.5-13.1-22.6-25.1-36.5-35.9l-22.3-17.5c-3.2-3.1-6.5-6.6-10-10.8-4-4.3-6-9.7-6-16.3 0-6.7 2-12.7 5.9-17.8 3.3-4.9 7-9.3 10.9-13.2 6.9-5.7 13.3-11.4 19.4-16.9 5.5-5.5 10.7-11.6 15.6-18.1 10-13.5 15.2-31.5 15.6-54 0-12.3-1.4-23-4.3-32.3-3.5-9.2-7.5-17.2-12.1-23.9-4.8-7.2-9.6-13.2-14.6-18.1-5.2-4.7-9.8-8.3-14-10.7h40.6l40.6-22.7zM248 365.6c10.9 11.9 16.4 25.8 16.4 41.8 0 19.7-8 35.7-23.9 48.2-16.4 12.7-40 19.2-71.1 19.7-34.6-.4-61.8-7.8-81.7-22.2-21-14.3-31.4-32.6-31.4-54.7 0-11.3 2.4-20.9 7.2-28.9 4.2-7.6 9.3-13.9 15.4-19 6.3-4.9 12.5-8.7 18.5-11.4 6.1-2.5 10.8-4.3 14.2-5.6 14.2-4.1 28.2-7.1 41.8-8.9 13.8-1.2 22.4-1.7 25.8-1.2 5.7 0 10.6.2 14.8.6 24.5 16.5 42.5 30.4 54 41.6zm-21.3-185.2c-1.6 8.4-5.2 16.6-10.7 24.6-11.6 11.3-26 17.2-43.3 17.8-13.7 0-25.9-4-36.6-12-10.7-8-19.4-17.8-26.1-29.2-14-24.6-21-48.3-21-71.1-.4-17.2 4.3-32.8 14.3-46.7 11.8-13.4 26.7-20.2 44.5-20.6 13.5.4 25.4 4.2 35.8 11.4C193.8 62.1 202 72 208.2 84c13.3 25.2 19.9 50.3 19.9 75.1 0 5.8-.5 12.9-1.4 21.3zm208.9-95.2V9.5h-38.4v75.7h-76.8v37.9h76.8v75.7h38.4v-75.7h76.8V85.2h-76.8z"/></symbol><symbol id="icon-linkedin" viewBox="0 0 512 512"><path fill-rule="evenodd" clip-rule="evenodd" d="M58.3 113.9c31.3 0 56.7-25.4 56.7-56.8C115 25.8 89.6.3 58.3.3 26.9.4 1.5 25.9 1.5 57.2c0 31.3 25.4 56.7 56.8 56.7zM395.2 170c-58.1 0-95.6 39.6-110.2 61.8v1.1h-.7c.2-.4.5-.7.7-1.1v-61.2H171.2c1.4 30.5 0 340.8 0 340.8H285V329.5c0-9.7.7-19.4 3.6-26.4 7.9-19.5 28.6-39.6 58.8-39.6 39.6 0 50.1 29.9 50.1 73.6v174.3h114.7V324.7c.1-100.1-45-154.7-117-154.7zM.3 511.4H115V170.6H.3v340.8z"/></symbol><symbol id="icon-twitter" viewBox="0 0 512 512"><path fill-rule="evenodd" clip-rule="evenodd" d="M512.1 99.9c-18.8 8.2-39.1 13.8-60.3 16.3 21.7-12.8 38.3-33 46.2-57.1-20.3 11.8-42.8 20.4-66.7 25.1-19.2-20.1-46.5-32.6-76.7-32.6-58 0-105 46.2-105 103.2 0 8.1.9 16 2.7 23.6-87.4-4.4-164.8-45.5-216.6-108-9 15.3-14.2 33-14.2 51.9 0 35.8 18.5 67.4 46.7 85.9-17.2-.6-33.4-5.2-47.6-12.9v1.3c0 50 36.2 91.8 84.3 101.2-8.8 2.4-18.1 3.6-27.7 3.6-6.8 0-13.3-.6-19.8-1.9 13.4 41 52.2 70.9 98.1 71.7-35.9 27.7-81.2 44.2-130.5 44.2-8.5 0-16.8-.5-25.1-1.4 46.5 29.3 101.7 46.4 161 46.4 193.2 0 298.9-157.3 298.9-293.8 0-4.5-.1-8.9-.3-13.4 20.7-14.4 38.5-32.6 52.6-53.3z"/></symbol></svg>