<?xml version="1.0" encoding="utf-8"?>
<!-- Generator: Adobe Illustrator 19.2.1, SVG Export Plug-In . SVG Version: 6.00 Build 0)  -->
<svg version="1.1" id="logo_1_" xmlns="http://www.w3.org/2000/svg" xmlns:xlink="http://www.w3.org/1999/xlink" x="0px" y="0px"
	 viewBox="0 0 512 512" enable-background="new 0 0 512 512" xml:space="preserve">
<g id="logo">
	<g>
		<path fill-rule="evenodd" clip-rule="evenodd" d="M320.2,22.3H188.5c-17.5,0-36.2,2-56.2,5.8C112.2,32.6,92.8,42.3,74,57
			c-27.3,25.2-40.9,53.2-40.9,84.1c0,25.6,9.6,48,28.8,67.3c18.4,20.7,45.1,31.2,80.1,31.6c6.6,0,13.7-0.4,21.2-1.2
			c-1.2,3.3-2.6,6.9-4,10.8c-1.6,3.7-2.5,8.3-2.5,13.9c0,9.3,2.2,17.2,6.5,23.8c3.7,6.8,7.9,13.2,12.7,19.1
			c-15.4,0.4-34.7,2.2-57.9,5.5c-23.5,3.9-45.9,11.6-67.2,23.3c-19,10.8-32.1,23.4-39.3,37.7c-7.5,14.3-11.2,27.3-11.2,38.9
			c0,23.9,11.5,44.5,34.4,61.6c22.7,18.4,57.2,27.8,103.3,28.2c55.1-0.8,97.2-13.4,126.5-37.8c28.2-23.5,42.3-50.6,42.3-81.1
			c-0.4-21.5-5.5-38.9-15.4-52.2c-10.5-13.1-22.6-25.1-36.5-35.9l-22.3-17.5c-3.2-3.1-6.5-6.6-10-10.8c-4-4.3-6-9.7-6-16.3
			c0-6.7,2-12.7,5.9-17.8c3.3-4.9,7-9.3,10.9-13.2c6.9-5.7,13.3-11.4,19.4-16.9c5.5-5.5,10.7-11.6,15.6-18.1
			c10-13.5,15.2-31.5,15.6-54c0-12.3-1.4-23-4.3-32.3c-3.5-9.2-7.5-17.2-12.1-23.9c-4.8-7.2-9.6-13.2-14.6-18.1
			c-5.2-4.7-9.8-8.3-14-10.7h40.6L320.2,22.3z M248,365.6c10.9,11.9,16.4,25.8,16.4,41.8c0,19.7-8,35.7-23.9,48.2
			c-16.4,12.7-40,19.2-71.1,19.7c-34.6-0.4-61.8-7.8-81.7-22.2c-21-14.3-31.4-32.6-31.4-54.7c0-11.3,2.4-20.9,7.2-28.9
			c4.2-7.6,9.3-13.9,15.4-19c6.3-4.9,12.5-8.7,18.5-11.4c6.1-2.5,10.8-4.3,14.2-5.6c14.2-4.1,28.2-7.1,41.8-8.9
			c13.8-1.2,22.4-1.7,25.8-1.2c5.7,0,10.6,0.2,14.8,0.6C218.5,340.5,236.5,354.4,248,365.6z M226.7,180.4
			c-1.6,8.4-5.2,16.6-10.7,24.6c-11.6,11.3-26,17.2-43.3,17.8c-13.7,0-25.9-4-36.6-12c-10.7-8-19.4-17.8-26.1-29.2
			C96,157,89,133.3,89,110.5c-0.4-17.2,4.3-32.8,14.3-46.7c11.8-13.4,26.7-20.2,44.5-20.6c13.5,0.4,25.4,4.2,35.8,11.4
			C193.8,62.1,202,72,208.2,84c13.3,25.2,19.9,50.3,19.9,75.1C228.1,164.9,227.6,172,226.7,180.4z M435.6,85.2V9.5h-38.4v75.7h-76.8
			v37.9h76.8v75.7h38.4v-75.7h76.8V85.2H435.6z"/>
	</g>
</g>
</svg>
