<?xml version="1.0" encoding="utf-8"?>
<!-- Generator: Adobe Illustrator 19.2.1, SVG Export Plug-In . SVG Version: 6.00 Build 0)  -->
<svg version="1.1" id="Logo_1_" xmlns="http://www.w3.org/2000/svg" xmlns:xlink="http://www.w3.org/1999/xlink" x="0px" y="0px"
	 viewBox="0 0 512 512" enable-background="new 0 0 512 512" xml:space="preserve">
<g id="Logo">
	<g>
		<path fill-rule="evenodd" clip-rule="evenodd" d="M58.3,113.9c31.3,0,56.7-25.4,56.7-56.8c0-31.3-25.4-56.8-56.7-56.8
			C26.9,0.4,1.5,25.9,1.5,57.2C1.5,88.5,26.9,113.9,58.3,113.9z M395.2,170c-58.1,0-95.6,39.6-110.2,61.8v1.1h-0.7
			c0.2-0.4,0.5-0.7,0.7-1.1v-61.2H171.2c1.4,30.5,0,340.8,0,340.8H285V329.5c0-9.7,0.7-19.4,3.6-26.4c7.9-19.5,28.6-39.6,58.8-39.6
			c39.6,0,50.1,29.9,50.1,73.6v174.3h114.7V324.7C512.3,224.6,467.2,170,395.2,170z M0.3,511.4H115V170.6H0.3V511.4z"/>
	</g>
</g>
</svg>
