<?xml version="1.0" encoding="utf-8"?>
<!-- Generator: Adobe Illustrator 19.2.1, SVG Export Plug-In . SVG Version: 6.00 Build 0)  -->
<svg version="1.1" id="logo_1_" xmlns="http://www.w3.org/2000/svg" xmlns:xlink="http://www.w3.org/1999/xlink" x="0px" y="0px"
	 viewBox="0 0 512 512" enable-background="new 0 0 512 512" xml:space="preserve">
<g id="logo">
	<g>
		<path fill-rule="evenodd" clip-rule="evenodd" d="M512.1,99.9c-18.8,8.2-39.1,13.8-60.3,16.3c21.7-12.8,38.3-33,46.2-57.1
			c-20.3,11.8-42.8,20.4-66.7,25.1c-19.2-20.1-46.5-32.6-76.7-32.6c-58,0-105,46.2-105,103.2c0,8.1,0.9,16,2.7,23.6
			C164.9,174,87.5,132.9,35.7,70.4c-9,15.3-14.2,33-14.2,51.9c0,35.8,18.5,67.4,46.7,85.9c-17.2-0.6-33.4-5.2-47.6-12.9
			c0,0.4,0,0.9,0,1.3c0,50,36.2,91.8,84.3,101.2c-8.8,2.4-18.1,3.6-27.7,3.6c-6.8,0-13.3-0.6-19.8-1.9c13.4,41,52.2,70.9,98.1,71.7
			c-35.9,27.7-81.2,44.2-130.5,44.2c-8.5,0-16.8-0.5-25.1-1.4c46.5,29.3,101.7,46.4,161,46.4c193.2,0,298.9-157.3,298.9-293.8
			c0-4.5-0.1-8.9-0.3-13.4C480.2,138.8,498,120.6,512.1,99.9z"/>
	</g>
</g>
</svg>
